# xmcd
#
# Track frame offsets:
#	150
#	17703
#	39794
#	55124
#	71325
#	88429
#	104484
#	118327
#	138397
#	159260
#	172393
#
# Disc length: 2486 seconds
# Revision: 0
# Processed by: cddbd v1.5.2PL0 Copyright (c) Steve Scherf et al.
# Submitted via: dBpowerAMP V12.0
#
DISCID=9709b40b
DTITLE=Liza Ohlback - Trouble Goin' Down
DYEAR=2011
DGENRE=Blues
TTITLE0=Trouble Goin' Down
TTITLE1=Didn't See It Coming
TTITLE2=Shame
TTITLE3=Gone
TTITLE4=Something Gonna Give
TTITLE5=You're Everywhere
TTITLE6=I'm Tired
TTITLE7=Heading For Home
TTITLE8=Things I've Been Through
TTITLE9=Best You Move On
TTITLE10=The Dam Breaks
EXTD=
EXTT0=
EXTT1=
EXTT2=
EXTT3=
EXTT4=
EXTT5=
EXTT6=
EXTT7=
EXTT8=
EXTT9=
EXTT10=
PLAYORDER=
